<svg width="42" height="42" viewBox="0 0 42 42" fill="none" xmlns="http://www.w3.org/2000/svg">
<path d="M20.9688 0C9.38828 0 0 9.38828 0 20.9688C0 32.5492 9.38828 41.9375 20.9688 41.9375C32.5492 41.9375 41.9375 32.5492 41.9375 20.9688C41.9375 9.38828 32.5492 0 20.9688 0ZM20.9688 3.8125C30.4438 3.8125 38.125 11.4937 38.125 20.9688C38.125 30.4438 30.4438 38.125 20.9688 38.125C11.4937 38.125 3.8125 30.4438 3.8125 20.9688C3.8125 11.4937 11.4937 3.8125 20.9688 3.8125ZM29.586 12.7127C29.1018 12.6568 28.4936 12.7895 27.8138 13.0347C26.5718 13.4827 10.6976 20.2234 9.7807 20.6132C8.9124 20.983 8.08948 21.3861 8.08853 21.9684C8.08853 22.3783 8.33156 22.6097 9.00256 22.8489C9.70025 23.0987 11.4597 23.6306 12.4986 23.9175C13.4994 24.1929 14.6375 23.9528 15.2761 23.5563C15.9518 23.136 23.7601 17.9116 24.3196 17.4541C24.8791 16.9966 25.3262 17.5839 24.8687 18.0424C24.4112 18.5008 19.0512 23.6995 18.3439 24.4201C17.4861 25.2951 18.0959 26.2015 18.6716 26.5646C19.3283 26.9792 24.0562 30.1493 24.7682 30.6582C25.4802 31.1672 26.201 31.3973 26.8625 31.3973C27.524 31.3973 27.8721 30.5255 28.201 29.5152C28.587 28.3324 30.3952 16.5387 30.6173 14.215C30.685 13.5106 30.4627 13.0424 30.0272 12.8337C29.8954 12.7705 29.7473 12.7313 29.586 12.7127Z" fill="white"/>
</svg>
